{"title":"Black Sea 2014 BDRip XviD AC3-FWOLF","uid":11762282,"size":1620724096,"categoryP":"video","categoryS":"movies","magnet":"?xt=urn:btih:ff924eea500cdb6aef3d17c25eb1d18f78f47d78&amp;dn=Black+Sea+2014+BDRip+XviD+AC3-FWOLF&amp;tr=udp%3A%2F%2Ftracker.openbittorrent.com%3A80&amp;tr=udp%3A%2F%2Fopen.demonii.com%3A1337&amp;tr=udp%3A%2F%2Ftracker.coppersurfer.tk%3A6969&amp;tr=udp%3A%2F%2Fexodus.desync.com%3A6969","seeders":1,"leechers":0,"uploader":"TvTeam","files":4,"time":1426618291,"description":" &lt;a href=&quot;https://www.torrenting.com&quot; rel=&quot;nofollow&quot; target=&quot;_NEW&quot;&gt;https://www.torrenting.com&lt;/a&gt;\n\nSign up is OPEN - for the time being. Come and have fun.\n\n\n\n\nimdb.... &lt;a href=&quot;\nhttp://www.imdb.com/title/tt2261331/&quot; rel=&quot;nofollow&quot; target=&quot;_NEW&quot;&gt;\nhttp://www.imdb.com/title/tt2261331/&lt;/a&gt;\n\n\n\nIn order to make good with his former employers, \na submarine captain takes a job with a shadowy \nbacker to search the depths of the Black Sea for\na submarine rumored to be loaded with gold.\n\n\nDirector: Kevin Macdonald\n\n\nScenario: Dennis Kelly \n\n   \nStars:    Jude Law, Scoot McNairy, Ben Mendelsohn\n\n\nFormat                                   : AVI\nFormat/Info                              : Audio Video Interleave\nFile size                                : 1.50 GiB\nDuration                                 : 1h 49mn\nOverall bit rate                         : 1 955 Kbps\n\nVideo\nID                                       : 0\nFormat                                   : MPEG-4 Visual\nFormat profile                           : Advanced Simple@L5\nFormat settings, BVOP                    : 2\nFormat settings, QPel                    : Yes\nFormat settings, GMC                     : No warppoints\nFormat settings, Matrix                  : Default (H.263)\nMuxing mode                              : Packed bitstream\nCodec ID                                 : XVID\nCodec ID/Hint                            : XviD\nDuration                                 : 1h 49mn\nBit rate                                 : 1 500 Kbps\nWidth                                    : 720 pixels\nHeight                                   : 304 pixels\nDisplay aspect ratio                     : 2.35:1\nFrame rate                               : 25.000 fps\nColor space                              : YUV\nChroma subsampling                       : 4:2:0\nBit depth                                : 8 bits\nScan type                                : Progressive\nCompression mode                         : Lossy\nBits/(Pixel*Frame)                       : 0.274\nStream size                              : 1.15 GiB (77%)\nWriting library                          : XviD 1.2.1 (UTC 2008-12-04)\n\nAudio\nID                                       : 1\nFormat                                   : AC-3\nFormat/Info                              : Audio Coding 3\nMode extension                           : CM (complete main)\nFormat settings, Endianness              : Big\nCodec ID                                 : 2000\nDuration                                 : 1h 49mn\nBit rate mode                            : Constant\nBit rate                                 : 448 Kbps\nChannel(s)                               : 6 channels\nChannel positions                        : Front: L C R, Side: L R, LFE\nSampling rate                            : 48.0 KHz\nBit depth                                : 16 bits\nCompression mode                         : Lossy\nStream size                              : 352 MiB (23%)\nAlignment                                : Aligned on interleaves\nInterleave, duration                     : 64 ms (1.60 video frames)\nInterleave, preload duration             : 192 ms\nTitle                                    : English\n\n\n\n\nEncoded....................FWOLF              \n\nSource.....................1080p.BluRay.x264.DTS-FGT (Thanks!)\n\nSample.....................Yes\n\nSubs.......................(srt) No\n\nGreetz To: PsiX | Blacksheep | CFR | tomcat-12...\n.....and all P2P Encoders and Groups","torrent":{"xt":"urn:btih:ff924eea500cdb6aef3d17c25eb1d18f78f47d78","amp;dn":"Black+Sea+2014+BDRip+XviD+AC3-FWOLF","amp;tr":["udp%3A%2F%2Ftracker.openbittorrent.com%3A80","udp%3A%2F%2Fopen.demonii.com%3A1337","udp%3A%2F%2Ftracker.coppersurfer.tk%3A6969","udp%3A%2F%2Fexodus.desync.com%3A6969"],"infoHash":"ff924eea500cdb6aef3d17c25eb1d18f78f47d78","infoHashBuffer":{"type":"Buffer","data":[255,146,78,234,80,12,219,106,239,61,23,194,94,177,209,143,120,244,125,120]},"announce":[],"urlList":[]}}